<?xml version="1.0" standalone="no"?>
<!DOCTYPE svg PUBLIC "-//W3C//DTD SVG 20010904//EN"
 "http://www.w3.org/TR/2001/REC-SVG-20010904/DTD/svg10.dtd">
<svg version="1.0" xmlns="http://www.w3.org/2000/svg"
 width="1024.000000pt" height="1024.000000pt" viewBox="0 0 1024.000000 1024.000000"
 preserveAspectRatio="xMidYMid meet">
<g transform="translate(0.000000,1024.000000) scale(0.100000,-0.100000)"
fill="#000000" stroke="none">
<path d="M4860 9081 l0 -59 -37 -6 c-21 -3 -65 -8 -98 -11 -127 -14 -427 -77
-590 -124 -290 -84 -425 -137 -690 -266 -335 -164 -613 -353 -852 -579 -50
-47 -94 -86 -99 -86 -4 0 -29 24 -56 53 l-48 52 -121 -125 c-66 -69 -159 -166
-205 -216 l-84 -92 61 -59 62 -60 -27 -35 -27 -36 108 -90 c59 -49 121 -104
137 -120 l29 -31 -78 -91 -78 -91 23 -24 c17 -19 127 -105 179 -142 2 -1 -13
-28 -34 -59 -164 -247 -329 -691 -390 -1046 -6 -38 -6 -38 -54 -38 -26 0 -90
3 -141 7 l-92 6 6 66 c32 309 210 791 405 1096 44 70 81 130 81 133 -1 9 -253
217 -262 217 -8 0 -87 -121 -163 -249 -161 -275 -302 -647 -379 -1008 -43
-199 -53 -265 -69 -438 l-12 -135 -83 -3 -82 -3 2 -267 3 -267 83 -3 c45 -2
82 -7 82 -11 0 -26 23 -231 36 -321 46 -316 175 -744 313 -1035 82 -172 253
-465 272 -465 6 0 211 170 248 205 12 12 7 25 -37 92 -142 219 -267 498 -351
787 -44 150 -91 359 -91 405 0 34 8 36 175 47 l101 6 18 -94 c62 -330 232
-759 406 -1024 l20 -30 -105 -85 c-58 -46 -105 -87 -105 -91 0 -5 15 -25 33
-45 18 -21 52 -61 75 -90 l42 -51 -135 -117 c-74 -64 -135 -121 -135 -125 0
-5 12 -22 26 -39 l26 -31 -43 -48 c-24 -26 -49 -53 -56 -60 -7 -7 -13 -19 -13
-25 0 -6 53 -65 118 -132 65 -66 154 -159 198 -207 l81 -86 53 53 53 54 75
-69 c274 -257 675 -513 1057 -675 232 -99 582 -203 835 -249 78 -14 379 -56
402 -56 6 0 8 -13 4 -31 -3 -17 -3 -42 0 -55 l6 -24 297 2 296 3 -3 52 c-2 42
1 53 13 53 41 0 405 54 510 76 315 64 648 180 934 323 275 139 592 359 797
554 l111 106 56 -57 56 -56 138 144 c76 80 167 176 202 213 l65 68 -64 64 -63
64 26 35 c15 19 27 37 27 39 0 3 -60 58 -134 122 l-135 117 79 91 c43 50 76
95 74 99 -3 5 -48 42 -100 83 -52 42 -94 81 -94 88 0 6 16 39 36 72 154 255
295 621 364 944 l26 124 139 -2 c77 -1 140 -3 141 -4 1 -1 -5 -45 -12 -97 -51
-338 -221 -794 -418 -1119 -31 -50 -56 -95 -55 -99 0 -4 57 -54 126 -111 l126
-104 23 28 c32 41 137 219 200 339 195 376 349 903 388 1331 l11 130 83 3 82
3 0 269 0 270 -78 0 -78 0 -17 153 c-41 372 -123 694 -267 1052 -82 205 -273
563 -333 622 -13 14 -18 10 -231 -172 l-46 -40 76 -115 c148 -224 284 -543
359 -839 35 -137 67 -322 58 -331 -2 -3 -65 -9 -139 -15 -131 -10 -135 -9
-139 10 -3 11 -14 64 -25 119 -70 344 -212 695 -397 982 -12 19 -6 25 87 100
55 43 99 83 100 87 0 5 -34 50 -76 100 l-77 91 25 20 c13 12 75 64 136 116 62
52 112 99 112 104 0 5 -12 23 -27 38 l-27 28 63 64 64 65 -204 210 c-112 116
-206 211 -208 211 -3 0 -29 -23 -58 -52 l-52 -51 -111 106 c-398 379 -989 698
-1575 852 -177 47 -418 90 -611 110 l-60 7 4 59 4 59 -306 0 -306 0 0 -59z
m460 -1541 l0 -1190 -160 0 -160 0 0 1190 0 1190 160 0 160 0 0 -1190z m-690
946 l0 -144 -47 -6 c-198 -29 -546 -136 -770 -239 -223 -101 -401 -208 -596
-356 -38 -28 -72 -49 -77 -46 -4 2 -47 50 -96 106 l-88 102 44 40 c68 60 339
237 485 316 238 130 527 241 805 310 132 33 267 59 313 60 l27 1 0 -144z
m1205 130 c342 -61 744 -210 1080 -401 173 -98 430 -272 450 -306 4 -5 -37
-56 -90 -113 l-96 -104 -127 90 c-389 275 -793 453 -1222 538 l-135 27 -3 141
-3 142 33 0 c18 0 69 -6 113 -14z m-1291 -840 c68 -52 97 -157 61 -225 -50
-97 -196 -131 -276 -63 -35 29 -68 93 -69 132 0 72 46 150 105 176 49 23 136
13 179 -20z m1399 20 c70 -29 125 -124 112 -194 -27 -153 -235 -205 -325 -81
-49 68 -48 145 2 219 44 63 135 88 211 56z m1892 -226 c103 -104 117 -122 105
-133 -155 -142 -354 -327 -659 -612 -711 -665 -997 -925 -1068 -972 -22 -15
-27 -11 -132 95 -158 158 -275 241 -435 307 l-68 29 5 146 c4 129 9 160 44
288 56 202 87 237 203 237 54 0 75 -4 96 -21 85 -63 91 -117 31 -284 -69 -193
-69 -178 12 -222 38 -20 103 -64 144 -98 41 -33 80 -60 86 -60 5 0 120 105
253 233 134 127 365 346 513 486 149 140 324 307 390 371 215 208 346 330 353
330 4 0 61 -54 127 -120z m-4958 -127 c599 -571 734 -698 1111 -1052 l143
-134 37 32 c32 27 204 145 258 177 16 10 15 18 -29 115 -86 193 -95 240 -54
299 36 53 70 73 135 78 72 5 130 -20 161 -71 11 -18 38 -107 61 -197 36 -148
40 -176 40 -291 l0 -127 -27 -7 c-59 -14 -213 -96 -290 -154 -155 -114 -306
-287 -378 -429 -52 -106 -102 -263 -116 -367 -28 -212 6 -496 80 -674 17 -41
30 -75 29 -77 -2 -1 -131 -64 -287 -140 -302 -146 -353 -162 -421 -134 -103
43 -128 201 -45 284 26 27 65 43 210 90 l177 58 -6 29 c-3 16 -11 60 -17 97
-6 37 -13 77 -15 90 l-4 22 -1030 0 -1030 0 0 63 c0 35 -3 112 -7 170 l-6 107
1036 0 1037 0 4 23 c21 107 34 212 28 218 -4 4 -74 28 -157 54 -82 26 -162 54
-177 61 -71 37 -108 120 -87 197 16 59 42 92 94 117 57 28 102 19 241 -45 54
-26 123 -58 153 -72 29 -13 57 -21 60 -16 13 15 121 172 121 176 0 2 -96 92
-212 199 -264 242 -495 457 -849 793 -151 143 -319 302 -374 353 l-100 92 120
115 c66 62 123 114 127 114 4 1 118 -105 255 -236z m981 30 c48 -23 85 -83 90
-146 11 -141 -138 -233 -268 -164 -102 54 -119 197 -35 281 55 55 134 66 213
29z m2737 16 c81 -23 146 -123 131 -202 -15 -81 -97 -147 -181 -147 -54 0
-124 37 -152 79 -45 67 -20 204 44 246 52 34 96 41 158 24z m-3738 -1351 c48
-29 74 -71 80 -132 7 -69 -9 -117 -52 -155 -88 -77 -217 -59 -283 39 -20 30
-23 45 -20 96 5 79 35 125 103 160 58 29 117 27 172 -8z m4755 22 c76 -21 138
-102 138 -180 0 -170 -231 -242 -336 -105 -70 93 -22 240 92 280 48 17 59 18
106 5z m-2199 -194 c190 -56 337 -158 458 -319 106 -140 162 -288 175 -465 13
-169 -33 -368 -119 -522 -55 -98 -205 -252 -302 -308 -230 -135 -576 -158
-816 -55 -259 111 -438 313 -511 578 -29 108 -32 356 -4 455 94 339 343 576
686 651 123 27 312 21 433 -15z m1596 -9 c51 -34 72 -74 73 -138 0 -62 -28
-117 -73 -144 -19 -11 -106 -45 -194 -75 l-160 -55 2 -30 c1 -17 8 -70 15
-120 l14 -90 1037 -3 1037 -2 -2 -168 -3 -167 -1032 -3 -1033 -2 -4 -23 c-17
-82 -34 -213 -28 -218 4 -4 79 -29 167 -57 88 -29 174 -60 191 -71 60 -37 86
-150 51 -218 -20 -37 -70 -81 -103 -89 -65 -17 -120 2 -388 131 -147 70 -273
133 -280 139 -12 9 -9 23 16 86 122 301 125 646 8 945 -31 79 -37 102 -27 112
15 15 304 166 457 239 102 48 121 54 167 51 35 -2 65 -12 92 -30z m-4149
-1521 c57 -37 83 -94 78 -168 -13 -179 -246 -230 -335 -73 -40 70 -24 175 34
227 59 54 154 60 223 14z m4791 8 c91 -47 124 -170 68 -260 -24 -39 -104 -84
-150 -84 -97 0 -188 84 -189 175 0 82 51 159 121 182 39 13 112 7 150 -13z
m-3357 -218 c74 -73 200 -159 311 -212 61 -30 116 -54 123 -54 14 0 17 -209 3
-275 -23 -108 -83 -319 -98 -341 -59 -91 -231 -81 -287 16 -34 58 -27 117 32
260 29 68 52 129 52 135 0 5 -33 29 -73 52 -39 23 -109 72 -154 108 -57 46
-87 64 -97 58 -18 -10 -376 -346 -591 -553 -88 -85 -306 -294 -485 -464 -179
-169 -345 -328 -369 -353 l-43 -44 -124 123 c-68 68 -123 126 -122 130 9 27
1473 1382 1698 1571 l44 38 70 -78 c39 -43 88 -96 110 -117z m2291 -151 c181
-163 477 -435 680 -626 33 -31 191 -178 350 -326 160 -149 300 -282 313 -295
l23 -25 -117 -122 c-64 -67 -120 -120 -124 -119 -4 2 -165 154 -356 338 -439
421 -651 623 -930 883 l-222 206 -23 -26 c-37 -39 -172 -137 -234 -169 -40
-21 -53 -33 -48 -44 3 -8 28 -73 56 -145 41 -108 48 -137 44 -178 -5 -54 -28
-91 -78 -125 -29 -20 -44 -23 -96 -20 -107 7 -137 42 -185 220 -55 203 -58
222 -58 338 l0 115 102 44 c172 75 307 176 447 336 l74 84 86 -77 c47 -42 180
-162 296 -267z m-1265 -1340 l0 -1145 -160 0 -160 0 0 1145 0 1145 160 0 160
0 0 -1145z m-1459 325 c112 -74 118 -226 12 -307 -31 -24 -46 -28 -98 -28 -79
0 -132 32 -165 100 -79 163 103 332 251 235z m2747 15 c71 -30 122 -103 122
-175 0 -78 -64 -156 -143 -176 -74 -18 -166 26 -203 97 -20 40 -18 122 5 167
24 47 50 70 98 88 50 17 76 17 121 -1z m-2105 -309 c48 -18 74 -41 98 -88 27
-53 25 -121 -6 -175 -60 -100 -212 -113 -288 -24 -51 61 -56 133 -17 212 23
43 39 57 87 75 48 17 78 17 126 0z m1453 -11 c57 -29 79 -56 96 -118 14 -55 1
-110 -39 -158 -35 -41 -79 -59 -146 -59 -44 0 -62 6 -94 29 -91 66 -101 201
-20 278 60 57 127 66 203 28z m-2745 -261 c258 -198 688 -406 1052 -509 137
-38 304 -75 343 -75 l24 0 0 -146 0 -146 -57 7 c-91 10 -327 64 -451 101 -346
105 -630 238 -942 442 -183 119 -223 150 -216 169 8 20 169 202 179 203 5 0
35 -21 68 -46z m4073 -62 c97 -101 97 -99 50 -139 -70 -60 -326 -227 -459
-301 -226 -124 -558 -254 -780 -307 -112 -27 -329 -65 -367 -65 l-25 0 -6 132
c-4 73 -3 136 1 140 4 4 83 23 175 43 453 97 865 278 1197 524 121 90 97 93
214 -27z"/>
<path d="M5075 5683 c-276 -37 -495 -286 -495 -563 0 -144 54 -284 150 -392
216 -243 611 -250 842 -16 174 176 216 448 103 669 -31 61 -116 157 -176 199
-130 91 -265 124 -424 103z m176 -293 c55 -15 125 -67 159 -117 98 -150 47
-330 -120 -419 -55 -29 -199 -27 -264 5 -106 52 -161 140 -160 256 0 81 24
136 83 198 80 85 177 110 302 77z"/>
</g>
</svg>
